<?xml version="1.0" encoding="UTF-8" standalone="no"?>
<!-- Created with Inkscape (http://www.inkscape.org/) -->

<svg
   width="4.7629442mm"
   height="4.7628555mm"
   viewBox="0 0 4.7629442 4.7628555"
   version="1.1"
   id="svg1"
   xml:space="preserve"
   xmlns:inkscape="http://www.inkscape.org/namespaces/inkscape"
   xmlns:sodipodi="http://sodipodi.sourceforge.net/DTD/sodipodi-0.dtd"
   xmlns="http://www.w3.org/2000/svg"
   xmlns:svg="http://www.w3.org/2000/svg"><sodipodi:namedview
     id="namedview1"
     pagecolor="#ffffff"
     bordercolor="#000000"
     borderopacity="0.25"
     inkscape:showpageshadow="2"
     inkscape:pageopacity="0.0"
     inkscape:pagecheckerboard="0"
     inkscape:deskcolor="#d1d1d1"
     inkscape:document-units="mm" /><defs
     id="defs1" /><g
     inkscape:label="Calque 1"
     inkscape:groupmode="layer"
     id="layer1"
     transform="translate(-97.344492,-139.59205)"><path
       d="m 99.725748,144.35456 q -0.99219,0 -1.68672,-0.69453 -0.69453,-0.69453 -0.69453,-1.68672 0,-0.99219 0.69453,-1.68672 0.69453,-0.69453 1.68672,-0.69453 0.0926,0 0.1819,0.007 0.0893,0.007 0.175292,0.0198 -0.271202,0.19183 -0.433262,0.49941 -0.16205,0.30757 -0.16205,0.66476 0,0.59531 0.41671,1.01203 0.416722,0.41672 1.012042,0.41672 0.3638,0 0.66807,-0.16206 0.30427,-0.16205 0.49609,-0.43325 0.0132,0.086 0.0199,0.17529 0.007,0.0893 0.007,0.1819 0,0.99218 -0.69454,1.68672 -0.69452,0.69453 -1.686712,0.69453 z m 0,-0.52917 q 0.582082,0 1.045102,-0.3208 0.46303,-0.32081 0.67469,-0.83675 -0.13229,0.0331 -0.26458,0.0529 -0.13229,0.0198 -0.26458,0.0198 -0.8136,0 -1.385762,-0.57216 -0.57216,-0.57216 -0.57216,-1.38575 0,-0.1323 0.0198,-0.26459 0.0198,-0.13229 0.0529,-0.26458 -0.51594,0.21167 -0.83675,0.67469 -0.3208,0.46302 -0.3208,1.0451 0,0.76729 0.54239,1.30969 0.5424,0.54239 1.30969,0.54239 z m -0.0662,-1.78593 z"
       id="path1"
       style="fill:#3c4043;fill-opacity:1;stroke-width:0.00661458" /></g></svg>
