<?xml version="1.0" encoding="UTF-8" standalone="no"?>
<!-- Created with Inkscape (http://www.inkscape.org/) -->

<svg
   width="5.8208413mm"
   height="5.8208337mm"
   viewBox="0 0 5.8208413 5.8208337"
   version="1.1"
   id="svg1"
   xml:space="preserve"
   xmlns:inkscape="http://www.inkscape.org/namespaces/inkscape"
   xmlns:sodipodi="http://sodipodi.sourceforge.net/DTD/sodipodi-0.dtd"
   xmlns="http://www.w3.org/2000/svg"
   xmlns:svg="http://www.w3.org/2000/svg"><sodipodi:namedview
     id="namedview1"
     pagecolor="#ffffff"
     bordercolor="#000000"
     borderopacity="0.25"
     inkscape:showpageshadow="2"
     inkscape:pageopacity="0.0"
     inkscape:pagecheckerboard="0"
     inkscape:deskcolor="#d1d1d1"
     inkscape:document-units="mm" /><defs
     id="defs1" /><g
     inkscape:label="Calque 1"
     inkscape:groupmode="layer"
     id="layer1"
     transform="translate(-96.225413,-146.18728)"><path
       d="m 99.135831,149.89145 q 0.33073,0 0.56224,-0.23151 0.23151,-0.23151 0.23151,-0.56224 0,-0.33073 -0.23151,-0.56224 -0.23151,-0.23151 -0.56224,-0.23151 -0.33073,0 -0.56224,0.23151 -0.23151,0.23151 -0.23151,0.56224 0,0.33073 0.23151,0.56224 0.23151,0.23151 0.56224,0.23151 z m 0,0.52917 q -0.54901,0 -0.93597,-0.38696 -0.38695,-0.38695 -0.38695,-0.93596 0,-0.54901 0.38695,-0.93596 0.38696,-0.38696 0.93597,-0.38696 0.54901,0 0.935959,0.38696 0.38696,0.38695 0.38696,0.93596 0,0.54901 -0.38696,0.93596 -0.386949,0.38696 -0.935959,0.38696 z m -1.85208,-1.05834 h -1.05834 v -0.52916 h 1.05834 z m 4.762499,0 h -1.05834 v -0.52916 h 1.05834 z m -3.174999,-2.11666 v -1.05834 h 0.52916 v 1.05834 z m 0,4.7625 v -1.05834 h 0.52916 v 1.05834 z m -1.21709,-4.0349 -0.66807,-0.64161 0.37703,-0.39026 0.635,0.66145 z m 3.254379,3.28084 -0.64162,-0.66808 0.35058,-0.3638 0.66807,0.64161 z m -0.64823,-3.63803 0.64161,-0.66807 0.39026,0.37703 -0.66146,0.635 z m -3.280839,3.25438 0.66808,-0.64162 0.3638,0.35058 -0.64162,0.66807 z m 2.15636,-1.77271 z"
       id="path1-6"
       style="fill:#dadce0;fill-opacity:1;stroke-width:0.00661458"
       inkscape:export-filename="path1-6.svg"
       inkscape:export-xdpi="96"
       inkscape:export-ydpi="96" /></g></svg>
