<?xml version="1.0" encoding="UTF-8" standalone="no"?>
<!-- Created with Inkscape (http://www.inkscape.org/) -->

<svg
   width="4.7624998mm"
   height="4.7625003mm"
   viewBox="0 0 4.7624998 4.7625003"
   version="1.1"
   id="svg1"
   xml:space="preserve"
   xmlns:inkscape="http://www.inkscape.org/namespaces/inkscape"
   xmlns:sodipodi="http://sodipodi.sourceforge.net/DTD/sodipodi-0.dtd"
   xmlns="http://www.w3.org/2000/svg"
   xmlns:svg="http://www.w3.org/2000/svg"><sodipodi:namedview
     id="namedview1"
     pagecolor="#ffffff"
     bordercolor="#000000"
     borderopacity="0.25"
     inkscape:showpageshadow="2"
     inkscape:pageopacity="0.0"
     inkscape:pagecheckerboard="0"
     inkscape:deskcolor="#d1d1d1"
     inkscape:document-units="mm" /><defs
     id="defs1" /><g
     inkscape:label="Calque 1"
     inkscape:groupmode="layer"
     id="layer1"
     transform="translate(-108.9621,-143.52348)"><path
       d="m 113.35418,148.28598 -1.66688,-1.66688 q -0.19843,0.15875 -0.4564,0.25136 -0.25797,0.0926 -0.54901,0.0926 -0.72099,0 -1.22039,-0.4994 -0.4994,-0.4994 -0.4994,-1.22039 0,-0.72099 0.4994,-1.22039 0.4994,-0.4994 1.22039,-0.4994 0.72099,0 1.22039,0.4994 0.4994,0.4994 0.4994,1.22039 0,0.29104 -0.0926,0.54901 -0.0926,0.25797 -0.25136,0.45641 l 1.66688,1.66687 z m -2.67229,-1.85208 q 0.49609,0 0.84336,-0.34727 0.34726,-0.34726 0.34726,-0.84336 0,-0.49609 -0.34726,-0.84336 -0.34727,-0.34726 -0.84336,-0.34726 -0.4961,0 -0.84336,0.34726 -0.34727,0.34727 -0.34727,0.84336 0,0.4961 0.34727,0.84336 0.34726,0.34727 0.84336,0.34727 z"
       id="path1-4"
       style="fill:#3c4043;fill-opacity:1;stroke-width:0.00661458" /></g></svg>
